<?xml version="1.0" encoding="utf-8"?>
<!-- Generator: Adobe Illustrator 21.1.0, SVG Export Plug-In . SVG Version: 6.00 Build 0)  -->
<svg version="1.1" id="Слой_1" xmlns="http://www.w3.org/2000/svg" xmlns:xlink="http://www.w3.org/1999/xlink" x="0px" y="0px"
	 viewBox="0 0 4000 1000" style="enable-background:new 0 0 4000 1000;" xml:space="preserve">
<style type="text/css">
	.st0{fill:none;stroke:#FF8E31;stroke-width:3;stroke-miterlimit:10;}
	.st1{fill:none;stroke:#757574;stroke-width:3;stroke-miterlimit:10;}
	.st2{fill:none;stroke:#FF8C1A;stroke-width:3;stroke-linecap:round;stroke-miterlimit:10;}
	.st3{fill:#F7931E;stroke:#FF8E31;stroke-width:3;stroke-miterlimit:10;}
	.st4{fill:#F7931E;}
	.st5{font-family:'HelveticaNeue-Bold';}
	.st6{font-size:20px;}
	.st7{fill:none;stroke:#F7931E;stroke-width:3;stroke-miterlimit:10;}
	.st8{font-size:15px;}
	.st9{fill:none;stroke:#999999;stroke-width:3;stroke-linecap:round;stroke-miterlimit:10;}
	.st10{fill:none;stroke:#999999;stroke-width:3;stroke-miterlimit:10;}
	.st11{font-size:12px;}
	.st12{fill:none;stroke:#F68F1E;stroke-width:3;stroke-miterlimit:10;}
	.st13{fill:#F7931E;stroke:#F68F1E;stroke-width:3;stroke-miterlimit:10;}
	.st14{fill:#F7931E;stroke:#000000;stroke-width:3;stroke-linecap:round;stroke-miterlimit:10;}
	.st15{fill:none;stroke:#FF8E31;stroke-width:3;stroke-linecap:round;stroke-miterlimit:10;}
</style>
<polygon class="st0" points="717.1,304.3 717.1,363.9 712.3,363.9 712.3,354.2 688.6,354.2 688.6,363.9 680.3,363.9 680.3,415 
	540.3,415 540.3,354.5 523.4,354.5 523.4,304.3 "/>
<polygon class="st0" points="722.6,298.5 722.6,363.9 712.3,363.9 712.3,354.2 688.6,354.2 688.6,363.9 680.3,363.9 680.3,420.2 
	540.3,420.2 540.3,354.5 516.5,354.5 516.5,298.5 "/>
<rect x="613.6" y="420.2" class="st0" width="12.7" height="20.5"/>
<rect x="568.8" y="440.7" class="st0" width="104.3" height="7.5"/>
<rect x="494.5" y="362.9" class="st0" width="45.8" height="83.6"/>
<rect x="494.5" y="354.5" class="st0" width="45.8" height="8.4"/>
<rect x="494.5" y="436.3" class="st0" width="45.8" height="10.2"/>
<circle class="st0" cx="517.4" cy="441.4" r="2.5"/>
<line class="st0" x1="524.8" y1="358.7" x2="522.4" y2="358.7"/>
<line class="st0" x1="522.4" y1="358.7" x2="511.2" y2="358.7"/>
<path class="st0" d="M1094.2,356.7c-3.2,0-6.3,0.3-9.3,0.9c1-3.9,1.6-7.9,1.6-12.1c0-26.3-21.3-47.6-47.6-47.6
	c-21.6,0-39.8,14.4-45.7,34.1c-5.4-5-12.5-8-20.4-8c-16.6,0-30.1,13.5-30.1,30.1c0,7.2,2.5,13.8,6.7,19c-19.1,2.1-33.9,18.3-33.9,38
	c0,21.1,17.1,38.3,38.3,38.3h140.5c25.6,0,46.4-20.8,46.4-46.4S1119.8,356.7,1094.2,356.7z"/>
<rect x="680.3" y="363.9" class="st0" width="8.3" height="72.2"/>
<rect x="712.3" y="363.9" class="st0" width="66.8" height="72.2"/>
<rect x="688.6" y="354.2" class="st0" width="23.8" height="92.7"/>
<rect x="736.4" y="372.5" class="st0" width="32.6" height="14.7"/>
<rect x="736.4" y="396.4" class="st0" width="5.5" height="5.5"/>
<rect x="750" y="396.4" class="st0" width="5.5" height="5.5"/>
<rect x="763.6" y="396.4" class="st0" width="5.5" height="5.5"/>
<rect x="736.4" y="409.2" class="st0" width="5.5" height="5.5"/>
<rect x="750" y="409.2" class="st0" width="5.5" height="5.5"/>
<rect x="763.6" y="409.2" class="st0" width="5.5" height="5.5"/>
<rect x="736.4" y="422.6" class="st0" width="5.5" height="5.5"/>
<rect x="750" y="422.6" class="st0" width="5.5" height="5.5"/>
<rect x="763.6" y="422.6" class="st0" width="5.5" height="5.5"/>
<rect x="1298.2" y="296" class="st0" width="194.1" height="40.9"/>
<rect x="1311.7" y="309.6" class="st0" width="110.8" height="14.4"/>
<circle class="st0" cx="1471" cy="316.4" r="10.8"/>
<rect x="1298.2" y="351.2" class="st0" width="194.1" height="40.9"/>
<rect x="1311.7" y="364.8" class="st0" width="110.8" height="14.4"/>
<circle class="st0" cx="1471" cy="371.7" r="10.8"/>
<rect x="1298.2" y="405.7" class="st0" width="194.1" height="40.9"/>
<rect x="1311.7" y="419.3" class="st0" width="110.8" height="14.4"/>
<circle class="st0" cx="1471" cy="426.1" r="10.8"/>
<rect x="1960.2" y="296" class="st0" width="194.1" height="40.9"/>
<rect x="1973.7" y="309.6" class="st0" width="110.8" height="14.4"/>
<circle class="st0" cx="2133" cy="316.4" r="10.8"/>
<rect x="1960.2" y="351.2" class="st0" width="194.1" height="40.9"/>
<rect x="1973.7" y="364.8" class="st0" width="110.8" height="14.4"/>
<circle class="st0" cx="2133" cy="371.7" r="10.8"/>
<rect x="1960.2" y="405.7" class="st0" width="194.1" height="40.9"/>
<rect x="1973.7" y="419.3" class="st0" width="110.8" height="14.4"/>
<circle class="st0" cx="2133" cy="426.1" r="10.8"/>
<rect x="2341.8" y="329" class="st0" width="479.7" height="80.7"/>
<rect x="2374.7" y="355.4" class="st0" width="28.4" height="28.4"/>
<polyline class="st0" points="2388.9,378.7 2392.7,378.7 2392.7,375.9 2395.6,375.9 2395.6,371.6 2398.5,371.6 2398.5,360.7 
	2379.3,360.7 2379.3,371.6 2382.2,371.6 2382.2,375.9 2385.1,375.9 2385.1,378.7 2388.9,378.7 "/>
<rect x="2423.3" y="355.4" class="st0" width="28.4" height="28.4"/>
<polyline class="st0" points="2437.4,378.7 2441.2,378.7 2441.2,375.9 2444.1,375.9 2444.1,371.6 2447.1,371.6 2447.1,360.7 
	2427.8,360.7 2427.8,371.6 2430.8,371.6 2430.8,375.9 2433.7,375.9 2433.7,378.7 2437.4,378.7 "/>
<rect x="2471.4" y="355.4" class="st0" width="28.4" height="28.4"/>
<polyline class="st0" points="2485.6,378.7 2489.4,378.7 2489.4,375.9 2492.3,375.9 2492.3,371.6 2495.2,371.6 2495.2,360.7 
	2476,360.7 2476,371.6 2479,371.6 2479,375.9 2481.8,375.9 2481.8,378.7 2485.6,378.7 "/>
<rect x="2520.1" y="355.4" class="st0" width="28.4" height="28.4"/>
<polyline class="st0" points="2534.3,378.7 2538.1,378.7 2538.1,375.9 2540.9,375.9 2540.9,371.6 2543.9,371.6 2543.9,360.7 
	2524.7,360.7 2524.7,371.6 2527.6,371.6 2527.6,375.9 2530.5,375.9 2530.5,378.7 2534.3,378.7 "/>
<rect x="2568.6" y="355.4" class="st0" width="28.4" height="28.4"/>
<polyline class="st0" points="2582.8,378.7 2586.6,378.7 2586.6,375.9 2589.5,375.9 2589.5,371.6 2592.4,371.6 2592.4,360.7 
	2573.2,360.7 2573.2,371.6 2576.2,371.6 2576.2,375.9 2579,375.9 2579,378.7 2582.8,378.7 "/>
<rect x="2616.8" y="355.4" class="st0" width="28.4" height="28.4"/>
<polyline class="st0" points="2631,378.7 2634.8,378.7 2634.8,375.9 2637.6,375.9 2637.6,371.6 2640.6,371.6 2640.6,360.7 
	2621.4,360.7 2621.4,371.6 2624.3,371.6 2624.3,375.9 2627.2,375.9 2627.2,378.7 2631,378.7 "/>
<rect x="2664.6" y="355.4" class="st0" width="28.4" height="28.4"/>
<polyline class="st0" points="2678.8,378.7 2682.6,378.7 2682.6,375.9 2685.5,375.9 2685.5,371.6 2688.4,371.6 2688.4,360.7 
	2669.2,360.7 2669.2,371.6 2672.1,371.6 2672.1,375.9 2675,375.9 2675,378.7 2678.8,378.7 "/>
<rect x="2713.1" y="355.4" class="st0" width="28.4" height="28.4"/>
<polyline class="st0" points="2727.3,378.7 2731.1,378.7 2731.1,375.9 2734,375.9 2734,371.6 2736.9,371.6 2736.9,360.7 
	2717.7,360.7 2717.7,371.6 2720.7,371.6 2720.7,375.9 2723.5,375.9 2723.5,378.7 2727.3,378.7 "/>
<rect x="2761.3" y="355.4" class="st0" width="28.4" height="28.4"/>
<polyline class="st0" points="2775.5,378.7 2779.3,378.7 2779.3,375.9 2782.2,375.9 2782.2,371.6 2785.1,371.6 2785.1,360.7 
	2765.9,360.7 2765.9,371.6 2768.8,371.6 2768.8,375.9 2771.7,375.9 2771.7,378.7 2775.5,378.7 "/>
<rect x="2049.4" y="599.5" class="st1" width="15" height="51.7"/>
<rect x="2069.8" y="546" class="st1" width="11.3" height="45.5"/>
<rect x="2032.8" y="546" class="st1" width="11.3" height="45.5"/>
<rect x="2052.8" y="570" class="st1" width="8.1" height="29.5"/>
<rect x="2044" y="567" class="st1" width="8.8" height="6.6"/>
<rect x="2061" y="567" class="st1" width="8.8" height="6.6"/>
<path class="st2" d="M2014.4,585c-1.9-5-3-10.5-3-16.2c0-6.2,1.3-12.2,3.5-17.6"/>
<path class="st2" d="M2098.8,551.1c2.3,5.4,3.6,11.4,3.6,17.7c0,5.6-1,11-2.9,16"/>
<path class="st2" d="M1998,598.2c-4.4-8.9-6.9-18.8-6.9-29.4c0-11.4,2.9-22,7.9-31.4"/>
<path class="st2" d="M2114.6,537.2c5.1,9.4,8.1,20.1,8.1,31.6c0,10.6-2.5,20.6-6.9,29.4"/>
<path class="st2" d="M1979.7,610c-6.6-12.3-10.3-26.3-10.3-41.2c0-15.8,4.2-30.6,11.5-43.3"/>
<path class="st2" d="M2132.9,525.5c7.3,12.8,11.5,27.6,11.5,43.3c0,14.9-3.7,28.9-10.3,41.2"/>
<path class="st2" d="M1330.1,575c-0.8-2.2-1.3-4.6-1.3-7.1c0-2.7,0.5-5.3,1.5-7.7"/>
<path class="st2" d="M1358,560.2c1,2.4,1.6,5,1.6,7.7c0,2.5-0.4,4.8-1.3,7"/>
<path class="st2" d="M1322.9,580.8c-1.9-3.9-3-8.2-3-12.9c0-5,1.3-9.6,3.5-13.7"/>
<path class="st2" d="M1364.9,554.1c2.2,4.1,3.5,8.8,3.5,13.8c0,4.6-1.1,9-3,12.9"/>
<path class="st2" d="M1314.9,586c-2.9-5.4-4.5-11.5-4.5-18c0-6.9,1.8-13.4,5-19"/>
<path class="st2" d="M1372.9,549c3.2,5.6,5,12.1,5,19c0,6.5-1.6,12.6-4.5,18"/>
<path class="st2" d="M1432.1,575c-0.8-2.2-1.3-4.6-1.3-7.1c0-2.7,0.5-5.3,1.5-7.7"/>
<path class="st2" d="M1460,560.2c1,2.4,1.6,5,1.6,7.7c0,2.5-0.4,4.8-1.3,7"/>
<path class="st2" d="M1424.9,580.8c-1.9-3.9-3-8.2-3-12.9c0-5,1.3-9.6,3.5-13.7"/>
<path class="st2" d="M1466.9,554.1c2.2,4.1,3.5,8.8,3.5,13.8c0,4.6-1.1,9-3,12.9"/>
<path class="st2" d="M1416.9,586c-2.9-5.4-4.5-11.5-4.5-18c0-6.9,1.8-13.4,5-19"/>
<path class="st2" d="M1474.9,549c3.2,5.6,5,12.1,5,19c0,6.5-1.6,12.6-4.5,18"/>
<line class="st0" x1="804" y1="372" x2="889" y2="372"/>
<circle class="st3" cx="889" cy="372" r="3"/>
<circle class="st3" cx="802" cy="372" r="3"/>
<line class="st0" x1="423" y1="370" x2="470" y2="370"/>
<circle class="st3" cx="470" cy="370" r="3"/>
<circle class="st3" cx="421" cy="370" r="3"/>
<line class="st0" x1="1526" y1="372" x2="1611" y2="372"/>
<circle class="st3" cx="1611" cy="372" r="3"/>
<circle class="st3" cx="1524" cy="372" r="3"/>
<line class="st0" x1="1534" y1="568" x2="1916" y2="568"/>
<circle class="st3" cx="1919" cy="568" r="3"/>
<circle class="st3" cx="1532" cy="568" r="3"/>
<line class="st0" x1="1182" y1="372" x2="1267" y2="372"/>
<circle class="st3" cx="1267" cy="372" r="3"/>
<circle class="st3" cx="1392.5" cy="228.5" r="3"/>
<circle class="st3" cx="626.5" cy="226.5" r="3"/>
<circle class="st3" cx="1180" cy="372" r="3"/>
<line class="st0" x1="1396" y1="467" x2="1396" y2="552"/>
<circle class="st3" cx="1396" cy="552" r="3"/>
<circle class="st3" cx="1396" cy="465" r="3"/>
<line class="st0" x1="2223" y1="372" x2="2308" y2="372"/>
<circle class="st3" cx="2308" cy="372" r="3"/>
<circle class="st3" cx="2583" cy="447" r="3"/>
<circle class="st3" cx="2183" cy="569" r="3"/>
<circle class="st3" cx="2221" cy="372" r="3"/>
<line class="st0" x1="2856" y1="372" x2="2941" y2="372"/>
<circle class="st3" cx="2941" cy="372" r="3"/>
<circle class="st3" cx="2854" cy="372" r="3"/>
<rect x="1341.7" y="617.4" class="st2" width="106.6" height="26"/>
<line class="st2" x1="1344.6" y1="566.2" x2="1359.7" y2="612.3"/>
<path class="st2" d="M1371.7,585.9"/>
<line class="st2" x1="1431.5" y1="612.2" x2="1447" y2="565"/>
<polyline class="st0" points="2183,569 2583,569 2583,447 "/>
<text transform="matrix(1 0 0 1 990.6626 392.0938)" class="st4 st5 st6">Internet</text>
<path class="st0" d="M1791.2,356.7c-3.2,0-6.3,0.3-9.3,0.9c1-3.9,1.6-7.9,1.6-12.1c0-26.3-21.3-47.6-47.6-47.6
	c-21.6,0-39.8,14.4-45.7,34.1c-5.4-5-12.5-8-20.4-8c-16.6,0-30.1,13.5-30.1,30.1c0,7.2,2.5,13.8,6.7,19c-19.1,2.1-33.9,18.3-33.9,38
	c0,21.1,17.1,38.3,38.3,38.3h140.5c25.6,0,46.4-20.8,46.4-46.4S1816.8,356.7,1791.2,356.7z"/>
<line class="st0" x1="1859" y1="372" x2="1944" y2="372"/>
<circle class="st3" cx="1944" cy="372" r="3"/>
<circle class="st3" cx="1857" cy="372" r="3"/>
<text transform="matrix(1 0 0 1 1687.6626 392.0938)" class="st4 st5 st6">Internet</text>
<text transform="matrix(1 0 0 1 327.6626 426.0938)"><tspan x="0" y="0" class="st4 st5 st6">Сторона</tspan><tspan x="0" y="24" class="st4 st5 st6">      А</tspan></text>
<text transform="matrix(1 0 0 1 3549.6626 426.0938)"><tspan x="0" y="0" class="st4 st5 st6">Сторона</tspan><tspan x="0" y="24" class="st4 st5 st6">      Б</tspan></text>
<polyline class="st7" points="626.5,225.5 626.5,160.5 1392.5,160.5 1392.5,225.5 "/>
<text transform="matrix(1 0 0 1 922.5 153.5)" class="st4 st5 st8">Локальное соединение</text>
<path class="st9" d="M1039.7,715.3H1509"/>
<path class="st10" d="M1003.5,763.3"/>
<path class="st10" d="M899.5,848.5"/>
<path class="st9" d="M996.5,715.3"/>
<path class="st10" d="M1509,715.3c0,0,29.5-0.7,27.5-39.8"/>
<path class="st10" d="M1506.5,710.3"/>
<path class="st10" d="M1003.5,763.3"/>
<path class="st10" d="M1003.5,763.3"/>
<path class="st10" d="M1003.5,763.3"/>
<line class="st9" x1="497" y1="715.3" x2="966.3" y2="715.3"/>
<path class="st10" d="M1003.5,763.3"/>
<path class="st9" d="M497,715.3c0,0-29.5-0.7-27.5-39.8"/>
<path class="st9" d="M499.5,710.3"/>
<path class="st9" d="M1003.5,621.5"/>
<path class="st9" d="M1003.5,787.5"/>
<text transform="matrix(1 0 0 1 506.3335 402.3335)" class="st4 st5 st8">SIP</text>
<text transform="matrix(1 0 0 1 603.3335 362.3335)" class="st4 st5 st8">SIP</text>
<text transform="matrix(1 0 0 1 743.3335 384.3335)" class="st4 st5 st11">SIP</text>
<path class="st10" d="M966.5,715.5c0,0,38-5.3,37,47.8"/>
<path class="st9" d="M966.5,632.5"/>
<path class="st10" d="M1039.5,715.5c0,0-37-5.3-36,47.8"/>
<path class="st9" d="M1040.5,632.5"/>
<path class="st9" d="M1039.5,632.5"/>
<path class="st9" d="M1039.5,715.5"/>
<path class="st9" d="M2718.7,715.3H3438"/>
<path class="st10" d="M2131.5,763.3"/>
<path class="st9" d="M2429.5,715.3"/>
<path class="st10" d="M3438,715.3c0,0,29.5-0.7,27.5-39.8"/>
<path class="st10" d="M3435.5,710.3"/>
<path class="st10" d="M2131.5,763.3"/>
<path class="st10" d="M2131.5,763.3"/>
<path class="st10" d="M2131.5,763.3"/>
<line class="st9" x1="1930" y1="715.3" x2="2645" y2="715.3"/>
<path class="st10" d="M2131.5,763.3"/>
<path class="st9" d="M1930,715.3c0,0-29.5-0.7-27.5-39.8"/>
<path class="st9" d="M1627.5,710.3"/>
<path class="st9" d="M2131.5,787.5"/>
<path class="st10" d="M2645.5,715.5c0,0,38-5.3,37,47.8"/>
<path class="st10" d="M2718.5,715.5c0,0-37-5.3-36,47.8"/>
<path class="st9" d="M2472.5,715.5"/>
<text transform="matrix(1 0 0 1 850 785)" class="st4 st5 st6">Участок оборудования клиента</text>
<text transform="matrix(1 0 0 1 2507 785)" class="st4 st5 st6">Участок оборудования оператора</text>
<text transform="matrix(1 0 0 1 1310 261)"><tspan x="0" y="0" class="st4 st5 st6">Виртуальная АТС </tspan><tspan x="0" y="24" class="st4 st5 st6">        Asterisk</tspan></text>
<text transform="matrix(1 0 0 1 1279 676)" class="st4 st5 st6">VoIP GSM/CDMA шлюз</text>
<text transform="matrix(1 0 0 1 1977 676)"><tspan x="0" y="0" class="st4 st5 st6">Базовая станция </tspan><tspan x="0" y="24" class="st4 st5 st6">     оператора</tspan></text>
<text transform="matrix(1 0 0 1 1995 259)"><tspan x="0" y="0" class="st4 st5 st6"> SIP сервер </tspan><tspan x="0" y="24" class="st4 st5 st6"> оператора </tspan></text>
<text transform="matrix(1 0 0 1 2459 316)" class="st4 st5 st6"> Коммутатор оператора </text>
<rect x="2968.8" y="329" class="st0" width="479.7" height="80.7"/>
<rect x="3001.7" y="355.4" class="st0" width="28.4" height="28.4"/>
<polyline class="st0" points="3015.9,378.7 3019.7,378.7 3019.7,375.9 3022.6,375.9 3022.6,371.6 3025.5,371.6 3025.5,360.7 
	3006.3,360.7 3006.3,371.6 3009.2,371.6 3009.2,375.9 3012.1,375.9 3012.1,378.7 3015.9,378.7 "/>
<rect x="3050.3" y="355.4" class="st0" width="28.4" height="28.4"/>
<polyline class="st0" points="3064.4,378.7 3068.2,378.7 3068.2,375.9 3071.1,375.9 3071.1,371.6 3074.1,371.6 3074.1,360.7 
	3054.8,360.7 3054.8,371.6 3057.8,371.6 3057.8,375.9 3060.7,375.9 3060.7,378.7 3064.4,378.7 "/>
<rect x="3098.4" y="355.4" class="st0" width="28.4" height="28.4"/>
<polyline class="st0" points="3112.6,378.7 3116.4,378.7 3116.4,375.9 3119.3,375.9 3119.3,371.6 3122.2,371.6 3122.2,360.7 
	3103,360.7 3103,371.6 3106,371.6 3106,375.9 3108.8,375.9 3108.8,378.7 3112.6,378.7 "/>
<rect x="3147.1" y="355.4" class="st0" width="28.4" height="28.4"/>
<polyline class="st0" points="3161.3,378.7 3165.1,378.7 3165.1,375.9 3167.9,375.9 3167.9,371.6 3170.9,371.6 3170.9,360.7 
	3151.7,360.7 3151.7,371.6 3154.6,371.6 3154.6,375.9 3157.5,375.9 3157.5,378.7 3161.3,378.7 "/>
<rect x="3195.6" y="355.4" class="st0" width="28.4" height="28.4"/>
<polyline class="st0" points="3209.8,378.7 3213.6,378.7 3213.6,375.9 3216.5,375.9 3216.5,371.6 3219.4,371.6 3219.4,360.7 
	3200.2,360.7 3200.2,371.6 3203.2,371.6 3203.2,375.9 3206,375.9 3206,378.7 3209.8,378.7 "/>
<rect x="3243.8" y="355.4" class="st0" width="28.4" height="28.4"/>
<polyline class="st0" points="3258,378.7 3261.8,378.7 3261.8,375.9 3264.6,375.9 3264.6,371.6 3267.6,371.6 3267.6,360.7 
	3248.4,360.7 3248.4,371.6 3251.3,371.6 3251.3,375.9 3254.2,375.9 3254.2,378.7 3258,378.7 "/>
<rect x="3291.6" y="355.4" class="st0" width="28.4" height="28.4"/>
<polyline class="st0" points="3305.8,378.7 3309.6,378.7 3309.6,375.9 3312.5,375.9 3312.5,371.6 3315.4,371.6 3315.4,360.7 
	3296.2,360.7 3296.2,371.6 3299.1,371.6 3299.1,375.9 3302,375.9 3302,378.7 3305.8,378.7 "/>
<rect x="3340.1" y="355.4" class="st0" width="28.4" height="28.4"/>
<polyline class="st0" points="3354.3,378.7 3358.1,378.7 3358.1,375.9 3361,375.9 3361,371.6 3363.9,371.6 3363.9,360.7 
	3344.7,360.7 3344.7,371.6 3347.7,371.6 3347.7,375.9 3350.5,375.9 3350.5,378.7 3354.3,378.7 "/>
<rect x="3388.3" y="355.4" class="st0" width="28.4" height="28.4"/>
<polyline class="st0" points="3402.5,378.7 3406.3,378.7 3406.3,375.9 3409.2,375.9 3409.2,371.6 3412.1,371.6 3412.1,360.7 
	3392.9,360.7 3392.9,371.6 3395.8,371.6 3395.8,375.9 3398.7,375.9 3398.7,378.7 3402.5,378.7 "/>
<text transform="matrix(1 0 0 1 3043 316)" class="st4 st5 st6"> Коммутатор другого оператора </text>
<path class="st12" d="M3619.9,367.2c1.1,17.3-12.7,31.8-29.8,31.8c-16.5,0-29.8-13.4-29.8-29.8c0-17.1,14.4-30.8,31.7-29.8
	C3606.9,340.2,3619,352.3,3619.9,367.2z"/>
<path class="st13" d="M3603.2,370.8v12.1c0,2.1-1.8,3.9-3.9,3.9h-17.8c-2.1,0-3.9-1.8-3.9-3.9v-12.1c0-2.1,1.8-3.9,3.9-3.9h2.8
	l3.9,4.5l2.2-4.5h0.1l2.2,4.5l3.9-4.5h2.7C3601.5,366.9,3603.2,368.7,3603.2,370.8z"/>
<circle class="st13" cx="3590.4" cy="358.5" r="6.1"/>
<path class="st14" d="M3587.7,369.1"/>
<path class="st14" d="M3590.4,365.9"/>
<path class="st14" d="M3590.4,365.9"/>
<path class="st14" d="M3593.5,369.1"/>
<path class="st14" d="M3596.2,365.9"/>
<path class="st12" d="M399.9,367.2c1.1,17.3-12.7,31.8-29.8,31.8c-16.5,0-29.8-13.4-29.8-29.8c0-17.1,14.4-30.8,31.7-29.8
	C386.9,340.2,399,352.3,399.9,367.2z"/>
<path class="st13" d="M383.2,370.8v12.1c0,2.1-1.8,3.9-3.9,3.9h-17.8c-2.1,0-3.9-1.8-3.9-3.9v-12.1c0-2.1,1.8-3.9,3.9-3.9h2.8
	l3.9,4.5l2.2-4.5h0.1l2.2,4.5l3.9-4.5h2.7C381.5,366.9,383.2,368.7,383.2,370.8z"/>
<circle class="st13" cx="370.4" cy="358.5" r="6.1"/>
<path class="st14" d="M367.7,369.1"/>
<path class="st14" d="M370.4,365.9"/>
<path class="st14" d="M370.4,365.9"/>
<path class="st14" d="M373.5,369.1"/>
<path class="st14" d="M376.2,365.9"/>
<line class="st0" x1="3478" y1="372" x2="3494" y2="372"/>
<line class="st0" x1="3529" y1="372" x2="3545" y2="372"/>
<circle class="st3" cx="3545" cy="372" r="3"/>
<circle class="st3" cx="3476" cy="372" r="3"/>
<polyline class="st15" points="3514,344 3507,378 3517,366 3510,399 "/>
</svg>
